<svg preserveAspectRatio="xMidYMid meet" data-bbox="-0.023 -0.005 59.302 62.737" viewBox="-0.023 -0.005 59.302 62.737" xmlns="http://www.w3.org/2000/svg" data-type="color" role="img">
    <g>
        <g>
            <path d="M14.12 39.58c0-.06 0-.08.17-.13a5.4 5.4 0 0 1 2.28-.31 10.32 10.32 0 0 1 3.51.9 1.2 1.2 0 0 1 .24.15 5 5 0 0 0-.06.69c0 .42-.05 1 0 1.8 0 1.51.2 3.66.25 6a21.48 21.48 0 0 1-.86 6.91 16.21 16.21 0 0 1-.89 2.22c-.25.51-.4.79-.4.79A14 14 0 0 1 17 60a13.68 13.68 0 0 1-2.88 2c-3.17 1.84-3.35-.13-2.67-2.17a13.92 13.92 0 0 1 .82-2.2 19.32 19.32 0 0 0 .7-2.18 10.94 10.94 0 0 0 .8-1.94 16.11 16.11 0 0 0 .51-4.88c0-2-.25-4.18-.26-6a27.61 27.61 0 0 1 .1-3.05z" fill="#4b4a4e" data-color="1"></path>
            <path d="M.1 30.11a1.41 1.41 0 0 1-.1-.83 2.87 2.87 0 0 1 1-1.93 2.21 2.21 0 0 1 1.79-.54 2.77 2.77 0 0 1 .77.25 3.1 3.1 0 0 1 .62.43c.36.27 3.61 2.87 4.17 3.41C9.44 32 10.71 33 12 34.11l1.59 1.29a8.35 8.35 0 0 0 1.25 1 5.55 5.55 0 0 0 2.44.8 5.09 5.09 0 0 0 2.46-.38 5.58 5.58 0 0 0 2-1.54A5.09 5.09 0 0 0 22.93 33a19.62 19.62 0 0 0 .32-3.46 20.362 20.362 0 0 1 .34-3.48 13.65 13.65 0 0 1 .55-1.92 5.56 5.56 0 0 1 2.31-2.87 4.52 4.52 0 0 1 3.55-.49c.44.1.91.32 1.33.46l.79.28c.37.1.75.22 1.13.3a14.15 14.15 0 0 0 2.34.31h.35a8.06 8.06 0 0 0 1 .09 15.53 15.53 0 0 0 3.38-.17 17.32 17.32 0 0 0 4.37-1.26 17.42 17.42 0 0 0 4.05-2.51c2-1.77 3.21-3.21 4.09-3.87s1.29-.73 1.37-.31a5.87 5.87 0 0 1-.66 2.44 21.16 21.16 0 0 1-2.38 4.2 8.73 8.73 0 0 1-1.7 1.95A19.52 19.52 0 0 1 44 26.38a21 21 0 0 1-6.53 1.78 18.83 18.83 0 0 1-2.29.11 6 6 0 0 1-.87 0 20 20 0 0 1-2.87-.49c-.47-.13-1-.24-1.41-.4l-.32-.11c0 .22-.09.48-.12.75-.06.53-.09 1.13-.12 1.79a24.47 24.47 0 0 1-.47 4.54 11.52 11.52 0 0 1-2.42 4.9 11.76 11.76 0 0 1-4.36 3.26 11.25 11.25 0 0 1-5.44.86 11.85 11.85 0 0 1-5.17-1.7 15 15 0 0 1-1.95-1.48L8.1 38.94c-1.36-1.11-2.74-2.25-4.1-3.55a25.85 25.85 0 0 1-2-2.13 10.22 10.22 0 0 1-1.9-3.15z" fill="#4b4a4e" data-color="1"></path>
            <path d="M30.51 6.18c.64 3.94-1.39 9.24-4.86 9.81s-7.08-3.83-7.72-7.77S19.59.64 23.06.07s6.81 2.17 7.45 6.11z" fill="#4b4a4e" data-color="1"></path>
            <path d="M59.27 5.87c-.15 2.32-2.22 5.06-4.54 4.91s-4-3.12-3.87-5.45a4.21 4.21 0 0 1 8.41.54z" fill="#4b4a4e" data-color="1"></path>
        </g>
    </g>
</svg>